PathFileType	4	(X/Y/Z)	/Users/itak/Documents/Research/Walk-IL/dataset/trc/00547_00009.trc
DataRate	CameraRate	NumFrames	NumMarkers	Units	OrigDataRate	OrigDataStartFrame	OrigNumFrames
100.000000	100.000000	4	53	mm	100.000000	0	541
Frame#	Time	RPSI			LPSI			L3			STRN			T10			C7			CLAV			RBAK			LBAK			LSHO			LUPA			LAEL			LAOL			LWTS			LWPS			LFRA			LIFD			LHPS			LHTS			RSHO			RUPA			RAEL			RAOL			RWTS			RWPS			RFRA			RIFD			RHTS			RHPS			RBHD			LFHD			RFHD			LBHD			LHIP			RHIP			RASI			LASI			LKNE			LTHI			LANK			LTIP			LTOE			LMT1			LMT5			LHEE			RKNE			RTHI			RANK			RTIP			RTOE			RMT1			RMT5			RHEE			
		X1	Y1	Z1	X2	Y2	Z2	X3	Y3	Z3	X4	Y4	Z4	X5	Y5	Z5	X6	Y6	Z6	X7	Y7	Z7	X8	Y8	Z8	X9	Y9	Z9	X10	Y10	Z10	X11	Y11	Z11	X12	Y12	Z12	X13	Y13	Z13	X14	Y14	Z14	X15	Y15	Z15	X16	Y16	Z16	X17	Y17	Z17	X18	Y18	Z18	X19	Y19	Z19	X20	Y20	Z20	X21	Y21	Z21	X22	Y22	Z22	X23	Y23	Z23	X24	Y24	Z24	X25	Y25	Z25	X26	Y26	Z26	X27	Y27	Z27	X28	Y28	Z28	X29	Y29	Z29	X30	Y30	Z30	X31	Y31	Z31	X32	Y32	Z32	X33	Y33	Z33	X34	Y34	Z34	X35	Y35	Z35	X36	Y36	Z36	X37	Y37	Z37	X38	Y38	Z38	X39	Y39	Z39	X40	Y40	Z40	X41	Y41	Z41	X42	Y42	Z42	X43	Y43	Z43	X44	Y44	Z44	X45	Y45	Z45	X46	Y46	Z46	X47	Y47	Z47	X48	Y48	Z48	X49	Y49	Z49	X50	Y50	Z50	X51	Y51	Z51	X52	Y52	Z52	X53	Y53	Z53	

1	0	-1012.531677246094	1019.219970703125	336.2152099609375	-1003.94677734375	1024.374877929688	203.4335479736328	-1004.766479492188	1107.494262695312	266.0973205566406	-779.9483642578125	1297.373901367188	274.5288391113281	-1017.048889160156	1232.71240234375	266.3551330566406	-977.8792114257812	1506.068237304688	285.4458618164062	-802.52294921875	1408.191528320312	277.9035949707031	-1047.984252929688	1376.112060546875	365.4661560058594	-1005.478759765625	1456.48779296875	191.1354217529297	-905.3307495117188	1487.743041992188	114.3790588378906	-908.6886596679688	1363.036254882812	30.75567245483398	-879.553466796875	1140.027709960938	11.26159954071045	-971.614501953125	1130.185302734375	52.33717727661133	-774.1531982421875	908.0335083007812	61.98337173461914	-821.6843872070312	875.1294555664062	-5.052016258239746	-854.0997924804688	1054.0986328125	8.327470779418945	-783.3949584960938	729.796630859375	67.19174194335938	-812.0372924804688	815.9771728515625	3.912675142288208	-765.7794799804688	823.4193725585938	53.9694938659668	-922.5279541015625	1465.72900390625	440.2217407226562	-942.5669555664062	1399.895141601562	506.6875305175781	-941.3392333984375	1109.382080078125	547.605224609375	-995.0643310546875	1092.216186523438	519.96044921875	-807.738037109375	889.1336669921875	503.2040710449219	-852.611083984375	867.9976806640625	570.6430053710938	-930.6275634765625	1053.838989257812	554.8170166015625	-796.2994995117188	716.1339111328125	506.2970581054688	-778.6690673828125	798.3458251953125	518.1021118164062	-834.9039306640625	793.5238647460938	567.417236328125	-896.1976318359375	1704.052368164062	345.1254272460938	-767.2748413085938	1701.466796875	181.808837890625	-758.0875244140625	1721.702880859375	324.6829833984375	-899.1840209960938	1679.27685546875	180.895263671875	-884.8413696289062	949.124755859375	72.00381469726562	-898.6578369140625	939.197509765625	461.9063415527344	-806.88720703125	967.6001586914062	408.6163940429688	-794.9085693359375	964.958251953125	131.5484771728516	-869.9395141601562	495.5034790039062	129.2413787841797	-860.0482177734375	661.0621948242188	93.91741943359375	-957.51513671875	34.69076919555664	126.79833984375	-939.1017456054688	253.8526763916016	118.2457885742188	-746.9683837890625	38.03007507324219	183.8800964355469	-819.6055297851562	40.85698318481445	219.8274078369141	-834.9403686523438	34.43252182006836	112.7572250366211	-1026.608276367188	36.52173614501953	180.9456939697266	-900.7176513671875	494.8717041015625	410.5630187988281	-869.937744140625	783.5175170898438	458.8463134765625	-992.2056884765625	35.3544807434082	381.0603637695312	-907.5208740234375	353.8907775878906	396.84423828125	-767.7244873046875	38.27972030639648	368.6856079101562	-825.1602783203125	39.91732788085938	319.8800659179688	-862.0399780273438	35.33551788330078	418.9197692871094	-1038.82177734375	29.8197021484375	319.0617065429688	
2	0.01	-1012.590576171875	1019.212646484375	336.278076171875	-1003.967956542969	1024.357788085938	203.4684753417969	-1004.762817382812	1107.370483398438	266.1673583984375	-780.0153198242188	1297.362426757812	274.4954833984375	-1017.147338867188	1232.655517578125	266.4273681640625	-977.9716186523438	1506.068603515625	285.3957214355469	-802.6305541992188	1408.126342773438	277.8781433105469	-1048.064208984375	1376.151733398438	365.45654296875	-1005.687072753906	1456.325439453125	191.1422271728516	-905.6128540039062	1487.512451171875	114.3100814819336	-908.9935913085938	1362.770141601562	30.78879356384277	-879.7152099609375	1139.77294921875	11.32014465332031	-971.64501953125	1129.8359375	52.51026916503906	-777.0042114257812	905.9888916015625	63.82018661499023	-821.8076782226562	874.8087768554688	-5.072629451751709	-854.1771850585938	1053.844848632812	8.34187126159668	-783.3915405273438	729.5907592773438	67.07462310791016	-812.0151977539062	815.7588500976562	3.851111888885498	-765.7353515625	823.2020263671875	53.85301208496094	-922.5732421875	1465.776733398438	440.1767883300781	-942.6278686523438	1399.945922851562	506.6403503417969	-941.389404296875	1109.468017578125	547.6575927734375	-995.1825561523438	1092.331176757812	520.0818481445312	-808.1014404296875	889.061279296875	503.48193359375	-852.8104858398438	868.04443359375	570.83642578125	-930.6683959960938	1053.92236328125	554.8633422851562	-796.650146484375	716.0609130859375	506.6064453125	-779.0496215820312	798.2819213867188	518.3870239257812	-835.1882934570312	793.58251953125	567.7283935546875	-896.2877197265625	1703.859008789062	345.2369384765625	-767.024169921875	1701.65234375	182.1842956542969	-758.1859130859375	1721.436645507812	324.9961547851562	-898.990966796875	1679.544067382812	180.9373474121094	-884.9036865234375	949.084228515625	72.09070587158203	-898.6737670898438	939.1939086914062	461.9761352539062	-807.0010986328125	967.6089477539062	408.7286376953125	-794.893798828125	964.9874877929688	131.6160430908203	-869.9561157226562	495.5135192871094	129.2736968994141	-860.1327514648438	661.1600952148438	94.08712005615234	-957.5208740234375	34.68893432617188	126.805908203125	-939.1251831054688	253.8829498291016	118.2724456787109	-746.9722290039062	38.03389739990234	183.8818969726562	-819.6016235351562	40.86286544799805	219.8257598876953	-834.941162109375	34.4369010925293	112.7577972412109	-1026.608520507812	36.52392196655273	180.9468383789062	-900.7784423828125	494.8627014160156	410.6164855957031	-869.9695434570312	783.518798828125	458.8996887207031	-992.2003173828125	35.34066772460938	381.0711975097656	-907.5409545898438	353.8844909667969	396.8789672851562	-767.729736328125	38.27670288085938	368.6904907226562	-825.1683349609375	39.92385101318359	319.8911743164062	-862.0443725585938	35.32546234130859	418.9259643554688	-1038.938720703125	29.78577423095703	319.01220703125	
3	0.02	-1012.674987792969	1019.199768066406	336.3671875	-1003.997985839844	1024.3349609375	203.5149078369141	-1004.771484375	1107.218872070312	266.2523193359375	-780.1036376953125	1297.347778320312	274.44091796875	-1017.27587890625	1232.58447265625	266.5201721191406	-978.0831298828125	1506.067260742188	285.33154296875	-802.7675170898438	1408.053588867188	277.8125915527344	-1048.1630859375	1376.202880859375	365.4404602050781	-1005.944396972656	1456.126220703125	191.155029296875	-905.96533203125	1487.225708007812	114.2247772216797	-909.3941040039062	1362.43701171875	30.83135795593262	-879.9292602539062	1139.456787109375	11.39030456542969	-971.703125	1129.4091796875	52.73778533935547	-780.08837890625	903.7472534179688	65.79562377929688	-821.9559936523438	874.4342041015625	-5.103315830230713	-854.2900390625	1053.533325195312	8.349421501159668	-783.3961181640625	729.3304443359375	66.93101501464844	-812.0016479492188	815.4827880859375	3.786546468734741	-765.687255859375	822.9268798828125	53.70882415771484	-922.6265869140625	1465.826293945312	440.1232299804688	-942.701171875	1400.007934570312	506.5803527832031	-941.464599609375	1109.573974609375	547.7213134765625	-995.3375854492188	1092.470703125	520.218505859375	-808.5272827148438	888.9993286132812	503.8280944824219	-853.0692138671875	868.1034545898438	571.0902709960938	-930.7401123046875	1054.030029296875	554.9273681640625	-797.0777587890625	715.970703125	507.0157470703125	-779.4962768554688	798.2083740234375	518.7395629882812	-835.5368041992188	793.6559448242188	568.1179809570312	-896.4133911132812	1703.61572265625	345.3690185546875	-766.7000732421875	1701.869995117188	182.6556854248047	-758.3068237304688	1721.10546875	325.4294738769531	-898.7319946289062	1679.870849609375	180.9747161865234	-884.974609375	949.0341796875	72.19956970214844	-898.7327270507812	939.1973266601562	462.1022338867188	-807.1483764648438	967.6184692382812	408.8683166503906	-794.907470703125	965.0001831054688	131.7185668945312	-869.971923828125	495.5271606445312	129.3186187744141	-860.2197875976562	661.2809448242188	94.29569244384766	-957.5274047851562	34.68731307983398	126.8135833740234	-939.1548461914062	253.9104919433594	118.3107833862305	-746.9791259765625	38.03825759887695	183.8859252929688	-819.5982666015625	40.86935424804688	219.8241119384766	-834.9423217773438	34.44296264648438	112.7586059570312	-1026.608642578125	36.52493667602539	180.9482727050781	-900.844970703125	494.8507080078125	410.6825866699219	-869.9949340820312	783.5206298828125	458.9586486816406	-992.1932983398438	35.32241821289062	381.0841674804688	-907.5604248046875	353.8760375976562	396.9228820800781	-767.7344360351562	38.27377700805664	368.6950378417969	-825.175537109375	39.93092727661133	319.9031372070312	-862.0489501953125	35.31546401977539	418.9328918457031	-1039.0615234375	29.74876022338867	318.95849609375	
4	0.03	-1012.785034179688	1019.180053710938	336.4820556640625	-1004.038208007812	1024.306640625	203.5714721679688	-1004.79736328125	1107.049072265625	266.346923828125	-780.21142578125	1297.330200195312	274.3628540039062	-1017.432189941406	1232.502685546875	266.6305236816406	-978.2068481445312	1506.063354492188	285.2554931640625	-802.9270629882812	1407.981201171875	277.6957702636719	-1048.276123046875	1376.264404296875	365.4170837402344	-1006.238159179688	1455.901611328125	191.1751251220703	-906.3729858398438	1486.896240234375	114.1263046264648	-909.8797607421875	1362.051513671875	30.88058280944824	-880.19091796875	1139.095092773438	11.46691608428955	-971.7946166992188	1128.92822265625	53.01281356811523	-782.9743041992188	901.5950927734375	67.62561798095703	-822.1199951171875	874.0343627929688	-5.144835472106934	-854.4410400390625	1053.181396484375	8.345890045166016	-783.4155883789062	729.0263061523438	66.77252197265625	-812.0037231445312	815.1597290039062	3.726711750030518	-765.6441650390625	822.6051635742188	53.54857635498047	-922.6845092773438	1465.8720703125	440.0633544921875	-942.7824096679688	1400.078125	506.5097045898438	-941.5667724609375	1109.69482421875	547.7920532226562	-995.5250854492188	1092.627319335938	520.3558959960938	-808.9864501953125	888.9598388671875	504.2298583984375	-853.3829345703125	868.1727294921875	571.400390625	-930.8573608398438	1054.16015625	555.0185546875	-797.5595092773438	715.8700561523438	507.5162963867188	-779.9741821289062	798.1311645507812	519.142578125	-835.9312744140625	793.740966796875	568.5677490234375	-896.5747680664062	1703.3330078125	345.5104675292969	-766.3112182617188	1702.10302734375	183.2041320800781	-758.4421997070312	1720.726196289062	325.9786987304688	-898.4081420898438	1680.238525390625	180.9986877441406	-885.0465698242188	948.978515625	72.32478332519531	-898.8392944335938	939.2110595703125	462.2860107421875	-807.3233032226562	967.62890625	409.0274963378906	-794.9629516601562	964.9862060546875	131.8586578369141	-869.9847412109375	495.5444030761719	129.3758239746094	-860.2960815429688	661.411376953125	94.52777099609375	-957.5342407226562	34.68632888793945	126.820198059082	-939.1885375976562	253.9327850341797	118.3591156005859	-746.9888305664062	38.04255294799805	183.8921508789062	-819.595703125	40.87607192993164	219.8226623535156	-834.9437866210938	34.45028686523438	112.7595901489258	-1026.608520507812	36.5241584777832	180.9499816894531	-900.9089965820312	494.8363037109375	410.7578125	-870.0096435546875	783.5228881835938	459.0193481445312	-992.18505859375	35.30050277709961	381.098388671875	-907.5763549804688	353.8656005859375	396.9739685058594	-767.7372436523438	38.27151870727539	368.6981201171875	-825.1804809570312	39.93767547607422	319.9144287109375	-862.0532836914062	35.30688858032227	418.9403381347656	-1039.17333984375	29.71282386779785	318.9081420898438	
